<svg width="106" height="108" viewBox="0 0 106 108" fill="none" xmlns="http://www.w3.org/2000/svg">
<g filter="url(#filter0_dd_885_503)">
<rect x="3" width="100" height="102.762" rx="8.83978" fill="#205775" fill-opacity="0.5" shape-rendering="crispEdges"/>
<path d="M68.375 23.0695H63.25V21.3615C63.25 18.5363 60.9506 16.2373 58.125 16.2373H37.625C34.7994 16.2373 32.5 18.5363 32.5 21.3615V46.7328C32.5 48.089 33.2431 49.329 34.4372 49.9678C34.9805 50.2599 35.5767 50.4034 36.1712 50.4034C36.8819 50.4034 37.5908 50.1967 38.2041 49.7885L42.75 46.7584V52.1063H61.024L67.7959 56.6224C68.4092 57.0306 69.1181 57.2373 69.8288 57.2373C70.4233 57.2373 71.0178 57.0921 71.5627 56.8C72.7569 56.1595 73.5 54.9195 73.5 53.565V28.1936C73.5 25.3685 71.2006 23.0695 68.375 23.0695ZM36.3096 46.9463C36.2771 46.9668 36.1832 47.0283 36.0499 46.9583C35.915 46.8865 35.915 46.7721 35.915 46.7345V21.3615C35.915 20.4186 36.682 19.6534 37.6233 19.6534H58.1233C59.0663 19.6534 59.8316 20.4186 59.8316 21.3615V41.858H43.9407L36.3096 46.9463ZM70.0833 53.5667C70.0833 53.6026 70.0833 53.7187 69.9501 53.7905C69.8134 53.8639 69.7212 53.8007 69.6904 53.7785L62.0593 48.6902H46.1667V45.2741H63.25V26.4856H68.375C69.318 26.4856 70.0833 27.2508 70.0833 28.1936V53.5667ZM46.1667 28.1936H42.75C42.75 26.6752 43.418 25.2438 44.5813 24.2668C45.7447 23.2898 47.2754 22.8765 48.789 23.1515C50.8543 23.5119 52.5541 25.2097 52.918 27.2798C53.299 29.4525 52.2654 31.6234 50.3453 32.6841C49.5816 33.1043 49.5816 33.2273 49.5816 33.3178H46.165C46.165 31.0837 47.9382 30.1084 48.695 29.6916C49.1904 29.42 49.7115 28.7778 49.5526 27.8708C49.4347 27.2013 48.8658 26.6325 48.1979 26.5163C47.6751 26.4207 47.1695 26.5539 46.7765 26.8853C46.387 27.2098 46.165 27.6881 46.165 28.1954L46.1667 28.1936ZM46.1667 35.0258H49.5833V38.4419H46.1667V35.0258Z" fill="white"/>
<path d="M26.3169 82.6684C25.9436 82.6151 25.6556 82.4711 25.4529 82.2364C25.2503 82.0017 25.1489 81.7191 25.1489 81.3884C25.1489 81.1431 25.2023 80.8977 25.3089 80.6524L29.0849 71.7404C29.2449 71.3671 29.5276 71.1804 29.9329 71.1804C30.3276 71.1804 30.5996 71.3671 30.7489 71.7404L34.5249 80.6524C34.6316 80.8977 34.6849 81.1431 34.6849 81.3884C34.6849 81.7191 34.5836 82.0017 34.3809 82.2364C34.1783 82.4711 33.8903 82.6151 33.5169 82.6684L32.1569 79.4204H27.6929L26.3169 82.6684ZM31.6289 77.9484L29.6609 73.0044L29.5169 73.0684L29.8369 73.8844L28.2049 77.9484H31.6289ZM36.7432 72.5404C36.7432 72.1031 36.8925 71.7671 37.1912 71.5324C37.4899 71.2977 37.9165 71.1804 38.4712 71.1804V81.3084C38.4712 81.7457 38.3219 82.0817 38.0232 82.3164C37.7245 82.5511 37.2979 82.6684 36.7432 82.6684V72.5404ZM40.5396 78.5724C40.5396 78.1244 40.6409 77.7777 40.8436 77.5324C41.0462 77.2764 41.3449 77.1484 41.7396 77.1484H46.5716C46.5716 77.5964 46.4702 77.9484 46.2676 78.2044C46.0649 78.4497 45.7609 78.5724 45.3556 78.5724H40.5396ZM48.3138 72.5404C48.3138 72.1031 48.4631 71.7671 48.7618 71.5324C49.0605 71.2977 49.4871 71.1804 50.0418 71.1804V76.1244H55.4178V72.5404C55.4178 72.0924 55.5618 71.7564 55.8498 71.5324C56.1485 71.2977 56.5751 71.1804 57.1298 71.1804V81.3084C57.1298 81.7457 56.9805 82.0817 56.6818 82.3164C56.3938 82.5511 55.9725 82.6684 55.4178 82.6684V77.6284H50.0418V81.3084C50.0418 81.7457 49.8925 82.0817 49.5938 82.3164C49.2951 82.5511 48.8685 82.6684 48.3138 82.6684V72.5404ZM66.0353 81.3564C66.0353 82.2311 65.5233 82.6684 64.4993 82.6684V81.6604C64.606 81.5644 64.7233 81.4097 64.8513 81.1964L64.7873 81.1324C64.4566 81.6017 64.0566 81.9751 63.5873 82.2524C63.118 82.5297 62.59 82.6684 62.0033 82.6684C61.438 82.6684 60.9366 82.5457 60.4993 82.3004C60.062 82.0551 59.7206 81.7137 59.4753 81.2764C59.23 80.8284 59.1073 80.3271 59.1073 79.7724V75.4684C59.1073 75.0844 59.2353 74.8071 59.4913 74.6364C59.758 74.4657 60.1633 74.3804 60.7073 74.3804V79.6924C60.7073 80.1724 60.8513 80.5564 61.1393 80.8444C61.4273 81.1324 61.8486 81.2764 62.4033 81.2764C62.9793 81.2764 63.4646 81.1004 63.8593 80.7484C64.254 80.3964 64.4513 79.9644 64.4513 79.4524V75.4684C64.4513 75.0844 64.5793 74.8071 64.8353 74.6364C65.0913 74.4657 65.4913 74.3804 66.0353 74.3804V81.3564ZM70.5739 82.6684C69.7526 82.6684 69.1393 82.4444 68.7339 81.9964C68.3286 81.5377 68.1259 80.9404 68.1259 80.2044V72.2684C68.1259 71.8844 68.2539 71.6071 68.5099 71.4364C68.7766 71.2657 69.1819 71.1804 69.7259 71.1804V80.1404C69.7259 80.5457 69.8059 80.8391 69.9659 81.0204C70.1366 81.1911 70.4139 81.2764 70.7979 81.2764C71.1926 81.2764 71.5659 81.1751 71.9179 80.9724C72.0779 81.1537 72.1579 81.3671 72.1579 81.6124C72.1579 81.8897 72.0139 82.1351 71.7259 82.3484C71.4486 82.5617 71.0646 82.6684 70.5739 82.6684ZM73.7357 75.5964C73.7357 75.2337 73.8584 74.9404 74.1037 74.7164C74.3597 74.4924 74.7384 74.3804 75.2397 74.3804V75.2604C75.1864 75.3351 75.133 75.4097 75.0797 75.4844C75.0264 75.5484 74.973 75.6177 74.9197 75.6924L74.9837 75.7564C75.3144 75.3191 75.6877 74.9831 76.1037 74.7484C76.5304 74.5031 77.0424 74.3804 77.6397 74.3804C78.5464 74.3804 79.277 74.6417 79.8317 75.1644C80.397 75.6764 80.6797 76.3537 80.6797 77.1964V79.8684C80.6797 80.7111 80.381 81.3884 79.7837 81.9004C79.197 82.4124 78.4344 82.6684 77.4957 82.6684C77.037 82.6684 76.5944 82.5724 76.1677 82.3804C75.741 82.1777 75.373 81.9164 75.0637 81.5964L75.0157 81.6764C75.0904 81.7831 75.2024 81.9004 75.3517 82.0284V84.7004C75.3517 85.4791 74.813 85.8684 73.7357 85.8684V75.5964ZM77.2237 81.2764C77.821 81.2764 78.285 81.1431 78.6157 80.8764C78.9464 80.6097 79.1117 80.2417 79.1117 79.7724V77.2764C79.1117 76.7964 78.9464 76.4284 78.6157 76.1724C78.285 75.9057 77.8157 75.7724 77.2077 75.7724C76.6744 75.7724 76.2264 75.9111 75.8637 76.1884C75.5117 76.4551 75.3357 76.7911 75.3357 77.1964V79.8524C75.3357 80.2577 75.5064 80.5991 75.8477 80.8764C76.1997 81.1431 76.6584 81.2764 77.2237 81.2764Z" fill="white"/>
</g>
<defs>
<filter id="filter0_dd_885_503" x="0.790056" y="0" width="104.42" height="107.183" filterUnits="userSpaceOnUse" color-interpolation-filters="sRGB">
<feFlood flood-opacity="0" result="BackgroundImageFix"/>
<feColorMatrix in="SourceAlpha" type="matrix" values="0 0 0 0 0 0 0 0 0 0 0 0 0 0 0 0 0 0 127 0" result="hardAlpha"/>
<feOffset dy="2.20994"/>
<feGaussianBlur stdDeviation="1.10497"/>
<feComposite in2="hardAlpha" operator="out"/>
<feColorMatrix type="matrix" values="0 0 0 0 0 0 0 0 0 0 0 0 0 0 0 0 0 0 0.25 0"/>
<feBlend mode="normal" in2="BackgroundImageFix" result="effect1_dropShadow_885_503"/>
<feColorMatrix in="SourceAlpha" type="matrix" values="0 0 0 0 0 0 0 0 0 0 0 0 0 0 0 0 0 0 127 0" result="hardAlpha"/>
<feOffset dy="2.20994"/>
<feGaussianBlur stdDeviation="1.10497"/>
<feComposite in2="hardAlpha" operator="out"/>
<feColorMatrix type="matrix" values="0 0 0 0 0 0 0 0 0 0 0 0 0 0 0 0 0 0 0.25 0"/>
<feBlend mode="normal" in2="effect1_dropShadow_885_503" result="effect2_dropShadow_885_503"/>
<feBlend mode="normal" in="SourceGraphic" in2="effect2_dropShadow_885_503" result="shape"/>
</filter>
</defs>
</svg>
