<svg width="117" height="117" viewBox="0 0 117 117" fill="none" xmlns="http://www.w3.org/2000/svg">
<path d="M59 7C30.8778 7 8 29.8778 8 58C8 86.1223 30.8778 109 59 109C87.1223 109 110 86.1223 110 58C110 29.8778 87.1223 7 59 7ZM59 100.5C35.5655 100.5 16.5 81.4345 16.5 58C16.5 34.5655 35.5655 15.5 59 15.5C82.4345 15.5 101.5 34.5655 101.5 58C101.5 81.4345 82.4345 100.5 59 100.5ZM84.5 58C84.5 70.614 75.2945 81.1158 63.25 83.143V87.75C63.25 90.096 61.3503 92 59 92C56.6497 92 54.75 90.096 54.75 87.75V83.143C42.7055 81.1158 33.5 70.614 33.5 58C33.5 55.654 35.3997 53.75 37.75 53.75C40.1003 53.75 42 55.654 42 58C42 67.3755 49.6245 75 59 75C68.3755 75 76 67.3755 76 58C76 55.654 77.8997 53.75 80.25 53.75C82.6003 53.75 84.5 55.654 84.5 58ZM50.5 58V36.75C50.5 32.0538 54.3037 28.25 59 28.25C63.6963 28.25 67.5 32.0538 67.5 36.75V58C67.5 62.6963 63.6963 66.5 59 66.5C54.3037 66.5 50.5 62.6963 50.5 58Z" fill="white"/>
</svg>
