<svg width="106" height="108" viewBox="0 0 106 108" fill="none" xmlns="http://www.w3.org/2000/svg">
<g filter="url(#filter0_dd_183_676)">
<rect x="3" width="100" height="102.762" rx="8.83978" fill="#205775" fill-opacity="0.5" shape-rendering="crispEdges"/>
<path d="M28.1747 26.3904H28.1951C28.6391 26.389 29.0647 26.2157 29.3804 25.9079L36.2316 19.2303C36.4074 19.0812 36.5502 18.898 36.6513 18.6922C36.7523 18.4864 36.8094 18.2623 36.8189 18.0339C36.8285 17.8054 36.7904 17.5775 36.7069 17.3642C36.6234 17.1508 36.4964 16.9567 36.3337 16.7938C36.171 16.6308 35.9761 16.5026 35.761 16.417C35.546 16.3314 35.3154 16.2903 35.0835 16.2961C34.8517 16.302 34.6236 16.3548 34.4132 16.4511C34.2029 16.5475 34.015 16.6855 33.861 16.8564L28.2239 22.3471L26.1038 20.1769C25.9491 20.0192 25.7645 19.8932 25.5604 19.8059C25.3564 19.7186 25.1368 19.6718 24.9144 19.6682C24.4652 19.6608 24.0315 19.8297 23.7086 20.1376C23.3857 20.4456 23.2001 20.8674 23.1926 21.3102C23.1852 21.753 23.3564 22.1807 23.6688 22.499L26.9776 25.8896C27.1338 26.0467 27.32 26.1719 27.5254 26.2578C27.7309 26.3438 27.9516 26.3888 28.1747 26.3904Z" fill="white"/>
<path d="M42.877 21.343H82.8075" stroke="white" stroke-width="3.1763" stroke-linecap="round"/>
<path d="M28.1747 41.5326H28.1951C28.6391 41.5312 29.0647 41.3579 29.3804 41.0501L36.2316 34.3725C36.4074 34.2234 36.5502 34.0402 36.6513 33.8344C36.7523 33.6286 36.8094 33.4045 36.8189 33.1761C36.8285 32.9476 36.7904 32.7197 36.7069 32.5064C36.6234 32.2931 36.4964 32.0989 36.3337 31.936C36.171 31.7731 35.9761 31.6448 35.761 31.5592C35.546 31.4736 35.3154 31.4325 35.0835 31.4383C34.8517 31.4442 34.6236 31.497 34.4132 31.5934C34.2029 31.6897 34.015 31.8277 33.861 31.9986L28.2239 37.4893L26.1038 35.3191C25.9491 35.1615 25.7645 35.0354 25.5604 34.9481C25.3564 34.8608 25.1368 34.814 24.9144 34.8104C24.4652 34.803 24.0315 34.9719 23.7086 35.2798C23.3857 35.5878 23.2001 36.0096 23.1926 36.4524C23.1852 36.8952 23.3564 37.3229 23.6688 37.6412L26.9776 41.0318C27.1338 41.1889 27.32 41.3141 27.5254 41.4C27.7309 41.486 27.9516 41.531 28.1747 41.5326Z" fill="white"/>
<path d="M42.877 36.4852H82.8075" stroke="white" stroke-width="3.1763" stroke-linecap="round"/>
<path d="M28.1747 57.1796H28.1951C28.6391 57.1781 29.0647 56.9962 29.3804 56.673L36.2316 49.6615C36.4074 49.5049 36.5502 49.3126 36.6513 49.0965C36.7523 48.8804 36.8094 48.6451 36.8189 48.4052C36.8285 48.1654 36.7904 47.926 36.7069 47.702C36.6234 47.478 36.4964 47.2742 36.3337 47.1031C36.171 46.932 35.9761 46.7974 35.761 46.7075C35.546 46.6176 35.3154 46.5744 35.0835 46.5806C34.8517 46.5867 34.6236 46.6421 34.4132 46.7433C34.2029 46.8445 34.015 46.9894 33.861 47.1689L28.2239 52.9341L26.1038 50.6554C25.9491 50.4898 25.7645 50.3575 25.5604 50.2658C25.3564 50.1742 25.1368 50.1251 24.9144 50.1212C24.4652 50.1135 24.0315 50.2908 23.7086 50.6142C23.3857 50.9375 23.2001 51.3804 23.1926 51.8453C23.1852 52.3103 23.3564 52.7593 23.6688 53.0936L26.9776 56.6537C27.1338 56.8187 27.32 56.9501 27.5254 57.0403C27.7309 57.1306 27.9516 57.1779 28.1747 57.1796Z" fill="white"/>
<path d="M42.877 51.8798H82.8075" stroke="white" stroke-width="3.1763" stroke-linecap="round"/>
<path d="M19.8223 72.7709H15.9342C15.9342 71.7682 16.3983 71.2669 17.3263 71.2669H25.4062C25.4062 71.7575 25.2889 72.1309 25.0543 72.3869C24.8196 72.6429 24.4729 72.7709 24.0143 72.7709H21.5343V81.2509C21.5343 81.6882 21.3849 82.0242 21.0863 82.2589C20.7983 82.4935 20.3769 82.6109 19.8223 82.6109V72.7709ZM27.9111 82.6109C27.2391 82.6109 26.6365 82.4882 26.1031 82.2429C25.5698 81.9975 25.1485 81.6615 24.8391 81.2349C24.5405 80.7975 24.3911 80.3122 24.3911 79.7789V77.2669C24.3911 76.7229 24.5405 76.2269 24.8391 75.7789C25.1378 75.3309 25.5538 74.9789 26.0871 74.7229C26.6205 74.4562 27.2285 74.3229 27.9111 74.3229C28.5938 74.3229 29.2018 74.4562 29.7351 74.7229C30.2685 74.9789 30.6845 75.3309 30.9831 75.7789C31.2925 76.2269 31.4471 76.7229 31.4471 77.2669V79.7789C31.4471 80.3122 31.2925 80.7975 30.9831 81.2349C30.6845 81.6615 30.2631 81.9975 29.7191 82.2429C29.1858 82.4882 28.5831 82.6109 27.9111 82.6109ZM27.9111 81.2349C28.5191 81.2349 28.9991 81.0962 29.3511 80.8189C29.7031 80.5309 29.8791 80.1522 29.8791 79.6829V77.3309C29.8791 76.8402 29.6978 76.4455 29.3351 76.1469C28.9831 75.8482 28.5085 75.6989 27.9111 75.6989C27.3138 75.6989 26.8338 75.8482 26.4711 76.1469C26.1191 76.4455 25.9431 76.8402 25.9431 77.3309V79.6829C25.9431 80.1522 26.1191 80.5309 26.4711 80.8189C26.8231 81.0962 27.3031 81.2349 27.9111 81.2349ZM32.813 78.5149C32.813 78.0669 32.9143 77.7202 33.117 77.4749C33.3197 77.2189 33.6183 77.0909 34.013 77.0909H38.845C38.845 77.5389 38.7437 77.8909 38.541 78.1469C38.3383 78.3922 38.0343 78.5149 37.629 78.5149H32.813ZM41.4673 82.4669C41.2219 82.4669 41.0139 82.3922 40.8433 82.2429C40.6726 82.0829 40.5872 81.8909 40.5872 81.6669V72.0669C40.5872 71.8322 40.6672 71.6402 40.8273 71.4909C40.9979 71.3415 41.2113 71.2669 41.4673 71.2669H45.1473C46.0646 71.2669 46.8753 71.4429 47.5793 71.7949C48.2939 72.1362 48.8433 72.6215 49.2273 73.2509C49.6219 73.8802 49.8193 74.6002 49.8193 75.4109V78.2909C49.8193 79.1015 49.6219 79.8269 49.2273 80.4669C48.8326 81.0962 48.2779 81.5869 47.5633 81.9389C46.8593 82.2909 46.0539 82.4669 45.1473 82.4669H41.4673ZM44.9873 80.9789C45.9793 80.9789 46.7473 80.7495 47.2913 80.2909C47.8353 79.8215 48.1073 79.1602 48.1073 78.3069V75.3789C48.1073 74.5469 47.8353 73.9015 47.2913 73.4429C46.7473 72.9842 45.9793 72.7549 44.9873 72.7549H42.3153V80.9789H44.9873ZM54.4893 82.6109C53.8173 82.6109 53.2146 82.4882 52.6813 82.2429C52.1479 81.9975 51.7266 81.6615 51.4173 81.2349C51.1186 80.7975 50.9693 80.3122 50.9693 79.7789V77.2669C50.9693 76.7229 51.1186 76.2269 51.4173 75.7789C51.7159 75.3309 52.1319 74.9789 52.6653 74.7229C53.1986 74.4562 53.8066 74.3229 54.4893 74.3229C55.1719 74.3229 55.7799 74.4562 56.3133 74.7229C56.8466 74.9789 57.2626 75.3309 57.5613 75.7789C57.8706 76.2269 58.0253 76.7229 58.0253 77.2669V79.7789C58.0253 80.3122 57.8706 80.7975 57.5613 81.2349C57.2626 81.6615 56.8413 81.9975 56.2973 82.2429C55.7639 82.4882 55.1613 82.6109 54.4893 82.6109ZM54.4893 81.2349C55.0973 81.2349 55.5773 81.0962 55.9293 80.8189C56.2813 80.5309 56.4573 80.1522 56.4573 79.6829V77.3309C56.4573 76.8402 56.2759 76.4455 55.9133 76.1469C55.5613 75.8482 55.0866 75.6989 54.4893 75.6989C53.8919 75.6989 53.4119 75.8482 53.0493 76.1469C52.6973 76.4455 52.5213 76.8402 52.5213 77.3309V79.6829C52.5213 80.1522 52.6973 80.5309 53.0493 80.8189C53.4013 81.0962 53.8813 81.2349 54.4893 81.2349ZM64.7801 82.4669C64.5348 82.4669 64.3215 82.3815 64.1401 82.2109C63.9695 82.0295 63.8841 81.8162 63.8841 81.5709V72.4829C63.8841 71.5762 64.4601 71.1229 65.6121 71.1229V80.9629H70.3161C70.7321 80.9629 71.0521 81.0909 71.2761 81.3469C71.5001 81.6029 71.6121 81.9762 71.6121 82.4669H64.7801ZM74.333 73.2669C74.013 73.2669 73.741 73.1655 73.517 72.9629C73.293 72.7602 73.181 72.5042 73.181 72.1949C73.181 71.8855 73.293 71.6295 73.517 71.4269C73.741 71.2242 74.013 71.1229 74.333 71.1229C74.653 71.1229 74.9197 71.2242 75.133 71.4269C75.357 71.6295 75.469 71.8855 75.469 72.1949C75.469 72.5042 75.357 72.7602 75.133 72.9629C74.9197 73.1655 74.653 73.2669 74.333 73.2669ZM73.533 75.4109C73.533 75.0269 73.661 74.7495 73.917 74.5789C74.1837 74.4082 74.5837 74.3229 75.117 74.3229V81.5229C75.117 81.8962 74.9837 82.1735 74.717 82.3549C74.461 82.5255 74.0663 82.6109 73.533 82.6109V75.4109ZM80.6113 82.6109C80.0246 82.6109 79.4806 82.5309 78.9793 82.3709C78.4886 82.2002 78.0993 81.9602 77.8113 81.6509C77.5233 81.3309 77.3793 80.9682 77.3793 80.5629C77.3793 80.0189 77.7366 79.7309 78.4513 79.6989C78.5473 80.2535 78.7873 80.6695 79.1713 80.9469C79.5659 81.2135 80.0513 81.3469 80.6273 81.3469C81.2246 81.3469 81.6886 81.2615 82.0193 81.0909C82.3499 80.9202 82.5153 80.6642 82.5153 80.3229C82.5153 79.9815 82.3659 79.7149 82.0673 79.5229C81.7793 79.3309 81.2353 79.1495 80.4353 78.9789C79.6993 78.8082 79.1179 78.6322 78.6913 78.4509C78.2646 78.2695 77.9446 78.0295 77.7313 77.7309C77.5179 77.4215 77.4113 77.0269 77.4113 76.5469C77.4113 76.1202 77.5393 75.7415 77.7953 75.4109C78.0513 75.0695 78.4086 74.8029 78.8673 74.6109C79.3366 74.4189 79.8753 74.3229 80.4833 74.3229C81.0593 74.3229 81.5873 74.3975 82.0673 74.5469C82.5579 74.6962 82.9473 74.9149 83.2353 75.2029C83.5339 75.4802 83.6833 75.8055 83.6833 76.1789C83.6833 76.7015 83.2886 76.9789 82.4993 77.0109C82.4459 76.5629 82.2486 76.2109 81.9073 75.9549C81.5766 75.6989 81.1179 75.5709 80.5312 75.5709C80.0513 75.5709 79.6619 75.6615 79.3633 75.8429C79.0646 76.0135 78.9153 76.2429 78.9153 76.5309C78.9153 76.8295 79.0486 77.0589 79.3153 77.2189C79.5926 77.3682 80.0619 77.5175 80.7233 77.6669C81.8646 77.9015 82.7019 78.2215 83.2353 78.6269C83.7686 79.0215 84.0353 79.5815 84.0353 80.3069C84.0353 81.0322 83.7313 81.5975 83.1233 82.0029C82.5259 82.4082 81.6886 82.6109 80.6113 82.6109ZM88.4011 82.6109C87.6011 82.6109 87.0091 82.3869 86.6251 81.9389C86.2411 81.4802 86.0491 80.8829 86.0491 80.1469V75.7149H84.5131C84.5131 75.2989 84.5985 74.9895 84.7691 74.7869C84.9398 74.5735 85.1691 74.4669 85.4571 74.4669H86.0811V73.0109C86.0811 72.6269 86.2091 72.3495 86.4651 72.1789C86.7211 72.0082 87.1105 71.9229 87.6331 71.9229V74.4669H89.7611C89.7611 74.8935 89.6705 75.2082 89.4891 75.4109C89.3185 75.6135 89.0465 75.7149 88.6731 75.7149H87.6651V80.0829C87.6651 80.4882 87.7398 80.7815 87.8891 80.9629C88.0385 81.1335 88.3051 81.2189 88.6891 81.2189C89.0625 81.2189 89.4251 81.1175 89.7771 80.9149C89.9478 81.0855 90.0331 81.2989 90.0331 81.5549C90.0331 81.8322 89.8891 82.0775 89.6011 82.2909C89.3131 82.5042 88.9131 82.6109 88.4011 82.6109Z" fill="white"/>
</g>
<defs>
<filter id="filter0_dd_183_676" x="0.790056" y="0" width="104.42" height="107.182" filterUnits="userSpaceOnUse" color-interpolation-filters="sRGB">
<feFlood flood-opacity="0" result="BackgroundImageFix"/>
<feColorMatrix in="SourceAlpha" type="matrix" values="0 0 0 0 0 0 0 0 0 0 0 0 0 0 0 0 0 0 127 0" result="hardAlpha"/>
<feOffset dy="2.20994"/>
<feGaussianBlur stdDeviation="1.10497"/>
<feComposite in2="hardAlpha" operator="out"/>
<feColorMatrix type="matrix" values="0 0 0 0 0 0 0 0 0 0 0 0 0 0 0 0 0 0 0.25 0"/>
<feBlend mode="normal" in2="BackgroundImageFix" result="effect1_dropShadow_183_676"/>
<feColorMatrix in="SourceAlpha" type="matrix" values="0 0 0 0 0 0 0 0 0 0 0 0 0 0 0 0 0 0 127 0" result="hardAlpha"/>
<feOffset dy="2.20994"/>
<feGaussianBlur stdDeviation="1.10497"/>
<feComposite in2="hardAlpha" operator="out"/>
<feColorMatrix type="matrix" values="0 0 0 0 0 0 0 0 0 0 0 0 0 0 0 0 0 0 0.25 0"/>
<feBlend mode="normal" in2="effect1_dropShadow_183_676" result="effect2_dropShadow_183_676"/>
<feBlend mode="normal" in="SourceGraphic" in2="effect2_dropShadow_183_676" result="shape"/>
</filter>
</defs>
</svg>
